# xmcd
#
# Track frame offsets: 
#        150
#        24437
#        44070
#        66142
#        90280
#        113292
#        141580
#
# Disc length: 2264 seconds
#
# Revision: 2
# Processed by: cddbd v1.5.2PL0 Copyright (c) Steve Scherf et al.
# Submitted via: ExactAudioCopy v0.95b4
#
DISCID=5608d607
DTITLE=Lou Donaldson - Swing And Soul
DYEAR=1957
DGENRE=Jazz
TTITLE0=Dorothy
TTITLE1=I Won't Cry Any More
TTITLE2=Herman's Mambo
TTITLE3=Peck Time
TTITLE4=There Will Never Be Another You
TTITLE5=Groove Junction
TTITLE6=Grits And Gravy
EXTD=YEAR: 1957
EXTT0=
EXTT1=
EXTT2=
EXTT3=
EXTT4=
EXTT5=
EXTT6=
PLAYORDER=
